# xmcd
#
# Track frame offsets: 
#        182
#        14597
#        25505
#        39485
#        51952
#        65815
#        79252
#        91140
#        104172
#        117510
#        130190
#        140992
#        152245
#        163277
#        175727
#        183977
#        194692
#        207142
#        218065
#        227412
#        238540
#        247910
#        256115
#
# Disc length: 3552 seconds
#
# Revision: 8
# Processed by: cddbd v1.5.2PL0 Copyright (c) Steve Scherf et al.
# Submitted via: ExactAudioCopyFreeDBPlugin 1.0
#
DISCID=4a0dde17
DTITLE=Various Artist - The Doo Wop Boxes I, II, and III [Rhino box set
DTITLE=s]
DYEAR=2000
DGENRE=Rhythm and Blues
TTITLE0=The Harptones - My Memories of You
TTITLE1=The Strangers - My Friends
TTITLE2=The Solitaires - I Don't Stand a Ghost of a Chance
TTITLE3=Tony Allen and The Champs - Nite Owl
TTITLE4=The Nutmegs - Ship of Love
TTITLE5=The Cleftones - Can't We Be Sweethearts
TTITLE6=The Heartbeats - Your Way
TTITLE7=The El Dorados - Bim Bam Boom
TTITLE8=The 3 Friends - Blanche
TTITLE9=The Enchanters - True Love Gone (Come on Home)
TTITLE10=The Jaguars - The Way You Look Tonight
TTITLE11=The Valentines - Don't Say Goodnight
TTITLE12=The Charts - Zoop
TTITLE13=The Crests - My Juanita
TTITLE14=The Del Vikings - I'm Spinning
TTITLE15=Lewis Lymon and The Teenchords - Your Last Chance
TTITLE16=The "5" Royales - Dedicated to the One I Love
TTITLE17=Ther Fascinators - Chapel Bells
TTITLE18=Little Anthony and The Imperials - Traveling Stranger
TTITLE19=The Avalons - Heart's Desire
TTITLE20=The Fantastics - There Goes My Love
TTITLE21=The Earls - Life is But a Dream
TTITLE22=The Four J's - Here I Am Broken Hearted
EXTD=
EXTT0=
EXTT1=
EXTT2=
EXTT3=
EXTT4=
EXTT5=
EXTT6=
EXTT7=
EXTT8=
EXTT9=
EXTT10=
EXTT11=
EXTT12=
EXTT13=
EXTT14=
EXTT15=
EXTT16=
EXTT17=
EXTT18=
EXTT19=
EXTT20=
EXTT21=
EXTT22=
PLAYORDER=
